<svg version="1.1" id="Layer_1" xmlns="http://www.w3.org/2000/svg" xmlns:xlink="http://www.w3.org/1999/xlink" x="0px" y="0px"
	 width="500px" height="500px" viewBox="0 0 500 500" enable-background="new 0 0 500 500" xml:space="preserve">
<path fill="cornflowerblue" d="M500,227.47c-23,0-44.127-8.265-62.508-23.616c-18.381,15.351-40.002,23.616-62.502,23.616
	c-22.5,0-44.119-8.265-62.5-23.616c-18.381,15.351-39.999,23.616-62.499,23.616s-44.117-8.265-62.499-23.616
	c-18.381,15.351-39.997,23.616-62.497,23.616s-44.117-8.265-62.498-23.616C44.116,219.205,22.5,227.47,0,227.47v-40
	c17.084,0,33.835-8.763,47.167-24.673l15.329-18.294l15.33,18.294c13.333,15.911,30.084,24.673,47.168,24.673
	c17.084,0,33.835-8.763,47.167-24.673l15.33-18.294l15.33,18.294c13.333,15.911,30.084,24.673,47.168,24.673
	c17.084,0,33.835-8.763,47.167-24.673l15.33-18.295l15.33,18.295c13.332,15.911,30.083,24.673,47.168,24.673
	s33.835-8.763,47.167-24.673l15.329-18.294l15.341,18.294C466.154,178.707,483,187.47,500,187.47V227.47z"/>
</svg>
